
<svg xmlns="http://www.w3.org/2000/svg"
     class="svg-snoweb svg-theme-dark"
     x="0"
     y="0"
     width="100%"
     height="100%"
     viewBox="0 0 100 100"
     preserveAspectRatio="xMidYMid meet"
>
<defs>
    <style>
        
            
            
            
        

        .svg-fill-primary {
            fill: #FFF;
        }

        .svg-fill-secondary {
            fill: #65CDAE;
        }

        .svg-fill-tertiary {
            fill: #37A987;
        }

        .svg-stroke-primary {
            stroke: #FFF;
        }

        .svg-stroke-secondary {
            stroke: #65CDAE;
        }

        .svg-stroke-tertiary {
            stroke: #37A987;
        }
    </style>
</defs>
    <path d="M65.1,55.7a3.8,3.8,0,0,0,3.3-2.1L79.7,31a3.8,3.8,0,0,0-.1-3.7,3.8,3.8,0,0,0-3.2-1.8H36l-1.2-4.7A3.8,3.8,0,0,0,31.2,18H23.6a3.8,3.8,0,0,0,0,7.5h4.6l1.2,4.6v.2l5.1,20.4-3.3,3.4A7.5,7.5,0,0,0,36.5,67H68.8a3.8,3.8,0,0,0,0-7.6H36.5l3.8-3.7Z"
          class="svg-fill-primary"/>
    <circle cx="67" cy="76.4" r="5.7" class="svg-fill-primary"/>
    <circle cx="36.8" cy="76.4" r="5.7" class="svg-fill-primary"/>
</svg>