
<svg xmlns="http://www.w3.org/2000/svg"
     class="svg-snoweb svg-theme-dark"
     x="0"
     y="0"
     width="100%"
     height="100%"
     viewBox="0 0 100 100"
     preserveAspectRatio="xMidYMid meet"
>
<defs>
    <style>
        
            
            
            
        

        .svg-fill-primary {
            fill: #FFF;
        }

        .svg-fill-secondary {
            fill: #65CDAE;
        }

        .svg-fill-tertiary {
            fill: #37A987;
        }

        .svg-stroke-primary {
            stroke: #FFF;
        }

        .svg-stroke-secondary {
            stroke: #65CDAE;
        }

        .svg-stroke-tertiary {
            stroke: #37A987;
        }
    </style>
</defs>
    <path d="M18,22.6A4.5,4.5,0,0,1,22.6,18H77.4a4.6,4.6,0,1,1,0,9.1H22.6A4.5,4.5,0,0,1,18,22.6Zm0,18.3a4.5,4.5,0,0,1,4.6-4.6H77.4a4.6,4.6,0,1,1,0,9.1H22.6A4.5,4.5,0,0,1,18,40.9Zm0,18.2a4.5,4.5,0,0,1,4.6-4.5H77.4a4.6,4.6,0,1,1,0,9.1H22.6A4.5,4.5,0,0,1,18,59.1Zm0,18.3a4.5,4.5,0,0,1,4.6-4.5H77.4a4.6,4.6,0,1,1,0,9.1H22.6A4.5,4.5,0,0,1,18,77.4Z"
          class="svg-fill-primary" fill-rule="evenodd"/>
</svg>